<mxfile host="app.diagrams.net" modified="2024-05-08T21:15:47.405Z" agent="Mozilla/5.0 (Windows NT 10.0; Win64; x64) AppleWebKit/537.36 (KHTML, like Gecko) Chrome/124.0.0.0 Safari/537.36" etag="egskCsCVK64Q3hiLhzex" version="24.3.1" type="github">
  <diagram name="Page-1" id="wDp5sFN9sV6duu0swdFR">
    <mxGraphModel dx="1764" dy="1009" grid="1" gridSize="10" guides="1" tooltips="1" connect="1" arrows="1" fold="1" page="1" pageScale="1" pageWidth="850" pageHeight="1100" math="0" shadow="0">
      <root>
        <mxCell id="0" />
        <mxCell id="1" parent="0" />
        <mxCell id="otOBwHmtKOfgYBcl1keT-2" value="" style="rounded=0;whiteSpace=wrap;html=1;fillColor=#f8cecc;strokeColor=#b85450;" vertex="1" parent="1">
          <mxGeometry x="33" y="58" width="90" height="240" as="geometry" />
        </mxCell>
        <mxCell id="otOBwHmtKOfgYBcl1keT-9" value="" style="rounded=0;whiteSpace=wrap;html=1;" vertex="1" parent="1">
          <mxGeometry x="38" y="160" width="80" height="60" as="geometry" />
        </mxCell>
        <mxCell id="otOBwHmtKOfgYBcl1keT-1" value="" style="rounded=0;whiteSpace=wrap;html=1;fillColor=#d5e8d4;strokeColor=#82b366;" vertex="1" parent="1">
          <mxGeometry x="338" y="58" width="110" height="240" as="geometry" />
        </mxCell>
        <mxCell id="otOBwHmtKOfgYBcl1keT-8" value="" style="rounded=0;whiteSpace=wrap;html=1;" vertex="1" parent="1">
          <mxGeometry x="343" y="100" width="100" height="93" as="geometry" />
        </mxCell>
        <mxCell id="otOBwHmtKOfgYBcl1keT-3" value="&lt;h1&gt;AMC&lt;/h1&gt;" style="text;html=1;align=center;verticalAlign=middle;whiteSpace=wrap;rounded=0;" vertex="1" parent="1">
          <mxGeometry x="33" y="28" width="60" height="30" as="geometry" />
        </mxCell>
        <mxCell id="otOBwHmtKOfgYBcl1keT-4" value="&lt;h1&gt;MCH&lt;/h1&gt;" style="text;html=1;align=center;verticalAlign=middle;whiteSpace=wrap;rounded=0;" vertex="1" parent="1">
          <mxGeometry x="338" y="28" width="60" height="30" as="geometry" />
        </mxCell>
        <mxCell id="otOBwHmtKOfgYBcl1keT-13" style="edgeStyle=orthogonalEdgeStyle;rounded=0;orthogonalLoop=1;jettySize=auto;html=1;exitX=0.5;exitY=1;exitDx=0;exitDy=0;" edge="1" parent="1" source="otOBwHmtKOfgYBcl1keT-5" target="otOBwHmtKOfgYBcl1keT-6">
          <mxGeometry relative="1" as="geometry" />
        </mxCell>
        <mxCell id="otOBwHmtKOfgYBcl1keT-5" value="Fermilink IP" style="rounded=0;whiteSpace=wrap;html=1;" vertex="1" parent="1">
          <mxGeometry x="358" y="110" width="65" height="68" as="geometry" />
        </mxCell>
        <mxCell id="otOBwHmtKOfgYBcl1keT-30" style="edgeStyle=orthogonalEdgeStyle;rounded=1;orthogonalLoop=1;jettySize=auto;html=1;exitX=0.5;exitY=1;exitDx=0;exitDy=0;entryX=0.5;entryY=1;entryDx=0;entryDy=0;curved=0;fillColor=#ffe6cc;strokeColor=#d79b00;strokeWidth=4;" edge="1" parent="1" source="otOBwHmtKOfgYBcl1keT-6" target="otOBwHmtKOfgYBcl1keT-24">
          <mxGeometry relative="1" as="geometry">
            <Array as="points">
              <mxPoint x="391" y="358" />
              <mxPoint x="490" y="358" />
              <mxPoint x="490" y="710" />
              <mxPoint x="391" y="710" />
            </Array>
          </mxGeometry>
        </mxCell>
        <mxCell id="otOBwHmtKOfgYBcl1keT-45" style="edgeStyle=orthogonalEdgeStyle;rounded=1;orthogonalLoop=1;jettySize=auto;html=1;exitX=0.75;exitY=1;exitDx=0;exitDy=0;entryX=0.75;entryY=1;entryDx=0;entryDy=0;curved=0;fillColor=#ffe6cc;strokeColor=#d79b00;strokeWidth=4;" edge="1" parent="1" source="otOBwHmtKOfgYBcl1keT-6" target="otOBwHmtKOfgYBcl1keT-39">
          <mxGeometry relative="1" as="geometry">
            <Array as="points">
              <mxPoint x="406" y="340" />
              <mxPoint x="510" y="340" />
              <mxPoint x="510" y="1070" />
              <mxPoint x="411" y="1070" />
            </Array>
          </mxGeometry>
        </mxCell>
        <mxCell id="otOBwHmtKOfgYBcl1keT-6" value="optical&lt;br&gt;transeiver" style="rounded=0;whiteSpace=wrap;html=1;" vertex="1" parent="1">
          <mxGeometry x="361" y="248" width="60" height="50" as="geometry" />
        </mxCell>
        <mxCell id="otOBwHmtKOfgYBcl1keT-12" style="edgeStyle=orthogonalEdgeStyle;rounded=1;orthogonalLoop=1;jettySize=auto;html=1;exitX=1;exitY=0.5;exitDx=0;exitDy=0;startArrow=classic;startFill=1;entryX=0;entryY=0.75;entryDx=0;entryDy=0;curved=0;" edge="1" parent="1" source="otOBwHmtKOfgYBcl1keT-7" target="otOBwHmtKOfgYBcl1keT-5">
          <mxGeometry relative="1" as="geometry">
            <mxPoint x="360" y="160" as="targetPoint" />
            <Array as="points">
              <mxPoint x="290" y="190" />
              <mxPoint x="290" y="161" />
            </Array>
          </mxGeometry>
        </mxCell>
        <mxCell id="otOBwHmtKOfgYBcl1keT-7" value="Fermilink IP" style="rounded=0;whiteSpace=wrap;html=1;" vertex="1" parent="1">
          <mxGeometry x="48" y="175" width="60" height="30" as="geometry" />
        </mxCell>
        <mxCell id="otOBwHmtKOfgYBcl1keT-10" value="&lt;h2&gt;FPGA&lt;/h2&gt;" style="text;html=1;align=center;verticalAlign=middle;whiteSpace=wrap;rounded=0;" vertex="1" parent="1">
          <mxGeometry x="38" y="130" width="60" height="30" as="geometry" />
        </mxCell>
        <mxCell id="otOBwHmtKOfgYBcl1keT-11" value="&lt;h2&gt;FPGA&lt;/h2&gt;" style="text;html=1;align=center;verticalAlign=middle;whiteSpace=wrap;rounded=0;" vertex="1" parent="1">
          <mxGeometry x="343" y="73" width="60" height="30" as="geometry" />
        </mxCell>
        <mxCell id="otOBwHmtKOfgYBcl1keT-14" value="MTCA Crate" style="swimlane;whiteSpace=wrap;html=1;fillColor=#f5f5f5;fontColor=#333333;strokeColor=#666666;" vertex="1" parent="1">
          <mxGeometry x="13" y="8" width="450" height="300" as="geometry" />
        </mxCell>
        <mxCell id="otOBwHmtKOfgYBcl1keT-46" value="" style="rounded=0;whiteSpace=wrap;html=1;fillColor=#f8cecc;strokeColor=#b85450;" vertex="1" parent="otOBwHmtKOfgYBcl1keT-14">
          <mxGeometry x="137" y="50" width="90" height="240" as="geometry" />
        </mxCell>
        <mxCell id="otOBwHmtKOfgYBcl1keT-47" value="" style="rounded=0;whiteSpace=wrap;html=1;" vertex="1" parent="otOBwHmtKOfgYBcl1keT-14">
          <mxGeometry x="142" y="80" width="80" height="60" as="geometry" />
        </mxCell>
        <mxCell id="otOBwHmtKOfgYBcl1keT-48" value="&lt;h1&gt;AMC&lt;/h1&gt;" style="text;html=1;align=center;verticalAlign=middle;whiteSpace=wrap;rounded=0;" vertex="1" parent="otOBwHmtKOfgYBcl1keT-14">
          <mxGeometry x="137" y="20" width="60" height="30" as="geometry" />
        </mxCell>
        <mxCell id="otOBwHmtKOfgYBcl1keT-49" value="Fermilink IP" style="rounded=0;whiteSpace=wrap;html=1;" vertex="1" parent="otOBwHmtKOfgYBcl1keT-14">
          <mxGeometry x="152" y="95" width="60" height="30" as="geometry" />
        </mxCell>
        <mxCell id="otOBwHmtKOfgYBcl1keT-50" value="&lt;h2&gt;FPGA&lt;/h2&gt;" style="text;html=1;align=center;verticalAlign=middle;whiteSpace=wrap;rounded=0;" vertex="1" parent="otOBwHmtKOfgYBcl1keT-14">
          <mxGeometry x="142" y="50" width="60" height="30" as="geometry" />
        </mxCell>
        <mxCell id="otOBwHmtKOfgYBcl1keT-16" value="" style="rounded=0;whiteSpace=wrap;html=1;fillColor=#f8cecc;strokeColor=#b85450;" vertex="1" parent="1">
          <mxGeometry x="33" y="425" width="90" height="240" as="geometry" />
        </mxCell>
        <mxCell id="otOBwHmtKOfgYBcl1keT-17" value="" style="rounded=0;whiteSpace=wrap;html=1;" vertex="1" parent="1">
          <mxGeometry x="38" y="500" width="80" height="60" as="geometry" />
        </mxCell>
        <mxCell id="otOBwHmtKOfgYBcl1keT-18" value="" style="rounded=0;whiteSpace=wrap;html=1;fillColor=#d5e8d4;strokeColor=#82b366;" vertex="1" parent="1">
          <mxGeometry x="338" y="425" width="110" height="240" as="geometry" />
        </mxCell>
        <mxCell id="otOBwHmtKOfgYBcl1keT-19" value="" style="rounded=0;whiteSpace=wrap;html=1;" vertex="1" parent="1">
          <mxGeometry x="343" y="500" width="100" height="60" as="geometry" />
        </mxCell>
        <mxCell id="otOBwHmtKOfgYBcl1keT-20" value="&lt;h1&gt;AMC&lt;/h1&gt;" style="text;html=1;align=center;verticalAlign=middle;whiteSpace=wrap;rounded=0;" vertex="1" parent="1">
          <mxGeometry x="33" y="395" width="60" height="30" as="geometry" />
        </mxCell>
        <mxCell id="otOBwHmtKOfgYBcl1keT-21" value="&lt;h1&gt;MCH&lt;/h1&gt;" style="text;html=1;align=center;verticalAlign=middle;whiteSpace=wrap;rounded=0;" vertex="1" parent="1">
          <mxGeometry x="338" y="395" width="60" height="30" as="geometry" />
        </mxCell>
        <mxCell id="otOBwHmtKOfgYBcl1keT-22" style="edgeStyle=orthogonalEdgeStyle;rounded=0;orthogonalLoop=1;jettySize=auto;html=1;exitX=0.5;exitY=1;exitDx=0;exitDy=0;" edge="1" parent="1" source="otOBwHmtKOfgYBcl1keT-23" target="otOBwHmtKOfgYBcl1keT-24">
          <mxGeometry relative="1" as="geometry" />
        </mxCell>
        <mxCell id="otOBwHmtKOfgYBcl1keT-23" value="Fermilink IP" style="rounded=0;whiteSpace=wrap;html=1;" vertex="1" parent="1">
          <mxGeometry x="358" y="515" width="65" height="30" as="geometry" />
        </mxCell>
        <mxCell id="otOBwHmtKOfgYBcl1keT-24" value="optical&lt;br&gt;transeiver" style="rounded=0;whiteSpace=wrap;html=1;" vertex="1" parent="1">
          <mxGeometry x="361" y="615" width="60" height="50" as="geometry" />
        </mxCell>
        <mxCell id="otOBwHmtKOfgYBcl1keT-25" style="edgeStyle=orthogonalEdgeStyle;rounded=0;orthogonalLoop=1;jettySize=auto;html=1;exitX=1;exitY=0.5;exitDx=0;exitDy=0;entryX=0;entryY=0.5;entryDx=0;entryDy=0;startArrow=classic;startFill=1;" edge="1" parent="1" source="otOBwHmtKOfgYBcl1keT-26" target="otOBwHmtKOfgYBcl1keT-23">
          <mxGeometry relative="1" as="geometry" />
        </mxCell>
        <mxCell id="otOBwHmtKOfgYBcl1keT-26" value="Fermilink IP" style="rounded=0;whiteSpace=wrap;html=1;" vertex="1" parent="1">
          <mxGeometry x="48" y="515" width="60" height="30" as="geometry" />
        </mxCell>
        <mxCell id="otOBwHmtKOfgYBcl1keT-27" value="&lt;h2&gt;FPGA&lt;/h2&gt;" style="text;html=1;align=center;verticalAlign=middle;whiteSpace=wrap;rounded=0;" vertex="1" parent="1">
          <mxGeometry x="38" y="470" width="60" height="30" as="geometry" />
        </mxCell>
        <mxCell id="otOBwHmtKOfgYBcl1keT-28" value="&lt;h2&gt;FPGA&lt;/h2&gt;" style="text;html=1;align=center;verticalAlign=middle;whiteSpace=wrap;rounded=0;" vertex="1" parent="1">
          <mxGeometry x="343" y="470" width="60" height="30" as="geometry" />
        </mxCell>
        <mxCell id="otOBwHmtKOfgYBcl1keT-29" value="MTCA Crate" style="swimlane;whiteSpace=wrap;html=1;fillColor=#f5f5f5;fontColor=#333333;strokeColor=#666666;" vertex="1" parent="1">
          <mxGeometry x="13" y="375" width="450" height="300" as="geometry" />
        </mxCell>
        <mxCell id="otOBwHmtKOfgYBcl1keT-31" value="" style="rounded=0;whiteSpace=wrap;html=1;fillColor=#f8cecc;strokeColor=#b85450;" vertex="1" parent="1">
          <mxGeometry x="38" y="780" width="90" height="240" as="geometry" />
        </mxCell>
        <mxCell id="otOBwHmtKOfgYBcl1keT-32" value="" style="rounded=0;whiteSpace=wrap;html=1;" vertex="1" parent="1">
          <mxGeometry x="43" y="855" width="80" height="60" as="geometry" />
        </mxCell>
        <mxCell id="otOBwHmtKOfgYBcl1keT-33" value="" style="rounded=0;whiteSpace=wrap;html=1;fillColor=#d5e8d4;strokeColor=#82b366;" vertex="1" parent="1">
          <mxGeometry x="343" y="780" width="110" height="240" as="geometry" />
        </mxCell>
        <mxCell id="otOBwHmtKOfgYBcl1keT-34" value="" style="rounded=0;whiteSpace=wrap;html=1;" vertex="1" parent="1">
          <mxGeometry x="348" y="855" width="100" height="60" as="geometry" />
        </mxCell>
        <mxCell id="otOBwHmtKOfgYBcl1keT-35" value="&lt;h1&gt;AMC&lt;/h1&gt;" style="text;html=1;align=center;verticalAlign=middle;whiteSpace=wrap;rounded=0;" vertex="1" parent="1">
          <mxGeometry x="38" y="750" width="60" height="30" as="geometry" />
        </mxCell>
        <mxCell id="otOBwHmtKOfgYBcl1keT-36" value="&lt;h1&gt;MCH&lt;/h1&gt;" style="text;html=1;align=center;verticalAlign=middle;whiteSpace=wrap;rounded=0;" vertex="1" parent="1">
          <mxGeometry x="343" y="750" width="60" height="30" as="geometry" />
        </mxCell>
        <mxCell id="otOBwHmtKOfgYBcl1keT-37" style="edgeStyle=orthogonalEdgeStyle;rounded=0;orthogonalLoop=1;jettySize=auto;html=1;exitX=0.5;exitY=1;exitDx=0;exitDy=0;" edge="1" parent="1" source="otOBwHmtKOfgYBcl1keT-38" target="otOBwHmtKOfgYBcl1keT-39">
          <mxGeometry relative="1" as="geometry" />
        </mxCell>
        <mxCell id="otOBwHmtKOfgYBcl1keT-38" value="Fermilink IP" style="rounded=0;whiteSpace=wrap;html=1;" vertex="1" parent="1">
          <mxGeometry x="363" y="870" width="65" height="30" as="geometry" />
        </mxCell>
        <mxCell id="otOBwHmtKOfgYBcl1keT-39" value="optical&lt;br&gt;transeiver" style="rounded=0;whiteSpace=wrap;html=1;" vertex="1" parent="1">
          <mxGeometry x="366" y="970" width="60" height="50" as="geometry" />
        </mxCell>
        <mxCell id="otOBwHmtKOfgYBcl1keT-40" style="edgeStyle=orthogonalEdgeStyle;rounded=0;orthogonalLoop=1;jettySize=auto;html=1;exitX=1;exitY=0.5;exitDx=0;exitDy=0;entryX=0;entryY=0.5;entryDx=0;entryDy=0;startArrow=classic;startFill=1;" edge="1" parent="1" source="otOBwHmtKOfgYBcl1keT-41" target="otOBwHmtKOfgYBcl1keT-38">
          <mxGeometry relative="1" as="geometry" />
        </mxCell>
        <mxCell id="otOBwHmtKOfgYBcl1keT-41" value="Fermilink IP" style="rounded=0;whiteSpace=wrap;html=1;" vertex="1" parent="1">
          <mxGeometry x="53" y="870" width="60" height="30" as="geometry" />
        </mxCell>
        <mxCell id="otOBwHmtKOfgYBcl1keT-42" value="&lt;h2&gt;FPGA&lt;/h2&gt;" style="text;html=1;align=center;verticalAlign=middle;whiteSpace=wrap;rounded=0;" vertex="1" parent="1">
          <mxGeometry x="43" y="825" width="60" height="30" as="geometry" />
        </mxCell>
        <mxCell id="otOBwHmtKOfgYBcl1keT-43" value="&lt;h2&gt;FPGA&lt;/h2&gt;" style="text;html=1;align=center;verticalAlign=middle;whiteSpace=wrap;rounded=0;" vertex="1" parent="1">
          <mxGeometry x="348" y="825" width="60" height="30" as="geometry" />
        </mxCell>
        <mxCell id="otOBwHmtKOfgYBcl1keT-44" value="MTCA Crate" style="swimlane;whiteSpace=wrap;html=1;fillColor=#f5f5f5;fontColor=#333333;strokeColor=#666666;" vertex="1" parent="1">
          <mxGeometry x="18" y="730" width="450" height="300" as="geometry" />
        </mxCell>
        <mxCell id="otOBwHmtKOfgYBcl1keT-51" style="edgeStyle=orthogonalEdgeStyle;rounded=1;orthogonalLoop=1;jettySize=auto;html=1;exitX=1;exitY=0.5;exitDx=0;exitDy=0;entryX=0;entryY=0.5;entryDx=0;entryDy=0;curved=0;startArrow=classic;startFill=1;" edge="1" parent="1" source="otOBwHmtKOfgYBcl1keT-49" target="otOBwHmtKOfgYBcl1keT-5">
          <mxGeometry relative="1" as="geometry" />
        </mxCell>
      </root>
    </mxGraphModel>
  </diagram>
</mxfile>
